<?xml version="1.0" encoding="UTF-8" standalone="no"?><!DOCTYPE svg PUBLIC "-//W3C//DTD SVG 1.1//EN" "http://www.w3.org/Graphics/SVG/1.1/DTD/svg11.dtd"><svg width="100%" height="100%" viewBox="0 0 3000 3000" version="1.1" xmlns="http://www.w3.org/2000/svg" xmlns:xlink="http://www.w3.org/1999/xlink" xml:space="preserve" xmlns:serif="http://www.serif.com/" style="fill-rule:evenodd;clip-rule:evenodd;stroke-linecap:round;stroke-linejoin:round;stroke-miterlimit:1.5;"><g><g><g><g><path d="M570.832,1371.65l5.426,130.649" style="fill:none;stroke:#102a7b;stroke-width:56.55px;"/><path d="M685.459,1366.89l5.425,130.649" style="fill:none;stroke:#102a7b;stroke-width:56.55px;"/><path d="M999.994,1353.83l5.426,130.649" style="fill:none;stroke:#102a7b;stroke-width:56.55px;"/><path d="M1114.62,1349.07l5.426,130.649" style="fill:none;stroke:#102a7b;stroke-width:56.55px;"/></g><path d="M1225.85,1344.45l-766.247,31.822" style="fill:none;stroke:#102a7b;stroke-width:56.55px;"/></g><path d="M1181.78,1589.24l165.212,185.122l-157.253,6.53l-98.84,2.637l-7.959,-191.652l98.84,-2.637Z" style="fill:none;stroke:#102a7b;stroke-width:56.55px;"/><path d="M768.446,2087.69c50.747,-2.107 93.658,37.382 95.765,88.129c2.108,50.747 -37.381,93.658 -88.128,95.765c-50.747,2.108 -93.658,-37.382 -95.766,-88.128c-2.107,-50.747 37.382,-93.658 88.129,-95.766Z" style="fill:none;stroke:#102a7b;stroke-width:56.55px;"/><path d="M1305.1,2065.41c50.747,-2.107 93.658,37.382 95.765,88.129c2.108,50.747 -37.381,93.658 -88.128,95.765c-50.747,2.108 -93.658,-37.381 -95.766,-88.128c-2.107,-50.747 37.382,-93.658 88.129,-95.766Z" style="fill:none;stroke:#102a7b;stroke-width:56.55px;"/><path d="M940.005,2119.57l196.773,-8.172" style="fill:none;stroke:#102a7b;stroke-width:56.55px;"/><path d="M1480.86,2097.11c87.103,-3.617 154.884,-77.271 151.266,-164.375l-1.805,-43.471c-3.617,-87.104 -77.271,-154.884 -164.375,-151.267l-163.407,-182.84c-65.755,-73.575 -61.371,-80.462 -125.399,-77.805c-69.685,2.891 -607.427,25.225 -607.427,25.225c-87.103,3.618 -154.884,77.272 -151.266,164.375l13.108,315.642c3.617,87.103 77.271,154.884 164.375,151.266" style="fill:none;stroke:#102a7b;stroke-width:56.55px;"/></g><path d="M2086.28,641.026c-154.797,-0.01 -328.647,-2.985 -328.938,95.146c-0.284,95.52 380.416,68.975 389.159,212.528c11.341,186.209 -711.837,85.211 -804.182,279.114c-125.353,263.213 1462.11,108.624 1316.22,625.27c-127.994,453.263 -1367.95,527.595 -2409.87,501.22" style="fill:none;stroke:#102a7b;stroke-width:57.46px;"/><g><path d="M1520.61,658.402c71.428,-0 129.419,57.991 129.419,129.419c0,71.429 -129.419,265.873 -129.419,265.873c-0,-0 -129.42,-194.444 -129.42,-265.873c0,-71.428 57.991,-129.419 129.42,-129.419Z" style="fill:none;stroke:#102a7b;stroke-width:25.32px;"/><circle cx="1520.61" cy="787.821" r="54.863" style="fill:none;stroke:#102a7b;stroke-width:25.32px;"/></g><g><path d="M2536.02,832.784c118.26,0 214.272,96.012 214.272,214.272c-0,118.259 -214.272,440.188 -214.272,440.188c0,-0 -214.271,-321.929 -214.271,-440.188c-0,-118.26 96.012,-214.272 214.271,-214.272Z" style="fill:none;stroke:#102a7b;stroke-width:41.92px;"/><circle cx="2536.02" cy="1047.06" r="90.832" style="fill:none;stroke:#102a7b;stroke-width:41.92px;"/></g></g></svg>